<svg width="15" height="15" viewBox="0 0 15 15" fill="none" xmlns="http://www.w3.org/2000/svg">
<g clip-path="url(#clip0_282_373)">
<path d="M12.3686 7.54994C11.8874 5.75744 11.1667 3.79182 10.8061 2.84119C11.1126 2.71702 11.4255 2.60957 11.7436 2.51932C11.8305 2.49679 11.9214 2.49466 12.0092 2.5131C12.097 2.53153 12.1794 2.57002 12.2499 2.62557C12.3278 2.68483 12.3908 2.76131 12.4342 2.84904C12.4776 2.93676 12.5001 3.03333 12.4999 3.13119H13.7499C13.7508 2.84164 13.6846 2.5558 13.5565 2.2961C13.4285 2.0364 13.242 1.80989 13.0117 1.63432C12.7897 1.46155 12.5306 1.34257 12.2549 1.28672C11.9791 1.23088 11.6942 1.23968 11.4224 1.31244C10.8493 1.4804 10.2882 1.68692 9.743 1.93057L9.19737 2.17619L9.41925 2.73307C9.4255 2.74807 9.73549 3.52494 10.1199 4.60182L7.51237 6.62869L5.25862 4.37494H6.24987V3.12494H2.49987V4.37494H3.49112L6.518 7.40244L5.27549 8.36869C4.71713 7.84326 3.98367 7.54369 3.21711 7.52797C2.45056 7.51225 1.70543 7.7815 1.12599 8.2836C0.546553 8.7857 0.174014 9.48493 0.0804981 10.2459C-0.0130177 11.0069 0.179142 11.7755 0.619775 12.403C1.06041 13.0304 1.71817 13.4721 2.46572 13.6424C3.21328 13.8128 3.99745 13.6997 4.66642 13.3251C5.33539 12.9505 5.84158 12.341 6.08699 11.6146C6.3324 10.8882 6.29958 10.0966 5.99487 9.39307L10.5499 5.85057C10.7374 6.42432 10.9249 7.02619 11.0911 7.61182C10.343 7.80683 9.69368 8.27226 9.26872 8.91814C8.84377 9.56403 8.67333 10.3445 8.79034 11.1088C8.90736 11.873 9.30352 12.5667 9.90227 13.0559C10.501 13.545 11.2598 13.7948 12.032 13.757C12.8043 13.7193 13.5351 13.3966 14.0832 12.8513C14.6313 12.3061 14.9579 11.577 14.9998 10.805C15.0416 10.033 14.7958 9.27283 14.3098 8.67151C13.8239 8.07019 13.1322 7.67037 12.3686 7.54932V7.54994Z" fill="#A1A1A1"/>
</g>
<defs>
<clipPath id="clip0_282_373">
<rect width="15" height="15" fill="white"/>
</clipPath>
</defs>
</svg>
