<svg width="24" height="24" viewBox="0 0 24 24" fill="none" xmlns="http://www.w3.org/2000/svg">
<g clip-path="url(#clip0_420_405)">
<path d="M17.2499 1.85071C16.2242 1.86063 15.2151 2.11065 14.3034 2.58073C13.3917 3.05081 12.6028 3.72788 11.9999 4.55771C11.397 3.72788 10.6081 3.05081 9.69638 2.58073C8.7847 2.11065 7.77559 1.86063 6.7499 1.85071C4.89167 1.92491 3.13842 2.73189 1.87351 4.09517C0.608611 5.45846 -0.0650268 7.26713 -0.000101359 9.12571C-0.000101359 13.6777 4.6739 18.5507 8.5999 21.8377C9.55323 22.6393 10.7588 23.0788 12.0044 23.0788C13.25 23.0788 14.4556 22.6393 15.4089 21.8377C19.3309 18.5507 24.0089 13.6777 24.0089 9.12571C24.0738 7.26563 23.3989 5.45564 22.1321 4.0921C20.8653 2.72856 19.1097 1.9226 17.2499 1.85071V1.85071ZM13.4769 19.5387C13.0633 19.8869 12.54 20.0779 11.9994 20.0779C11.4588 20.0779 10.9355 19.8869 10.5219 19.5387C5.7419 15.5307 2.9999 11.7357 2.9999 9.12571C2.93614 8.06292 3.29418 7.01789 3.99628 6.21749C4.69838 5.4171 5.68786 4.92596 6.7499 4.85071C7.81193 4.92596 8.80142 5.4171 9.50352 6.21749C10.2056 7.01789 10.5637 8.06292 10.4999 9.12571C10.4999 9.52353 10.6579 9.90506 10.9392 10.1864C11.2205 10.4677 11.6021 10.6257 11.9999 10.6257C12.3977 10.6257 12.7793 10.4677 13.0606 10.1864C13.3419 9.90506 13.4999 9.52353 13.4999 9.12571C13.4361 8.06292 13.7942 7.01789 14.4963 6.21749C15.1984 5.4171 16.1879 4.92596 17.2499 4.85071C18.3119 4.92596 19.3014 5.4171 20.0035 6.21749C20.7056 7.01789 21.0637 8.06292 20.9999 9.12571C20.9999 11.7357 18.2579 15.5307 13.4769 19.5387Z" fill="#D9D9D9"/>
</g>
<defs>
<clipPath id="clip0_420_405">
<rect width="24" height="24" fill="white"/>
</clipPath>
</defs>
</svg>
