<svg width="24" height="24" viewBox="0 0 24 24" fill="none" xmlns="http://www.w3.org/2000/svg">
<g clip-path="url(#clip0_420_391)">
<path d="M22.4422 11.9879C21.6852 11.9946 21.0492 12.5585 20.9518 13.3092C20.2306 18.2366 15.6515 21.6464 10.7241 20.9253C5.79668 20.2041 2.38685 15.625 3.10804 10.6976C3.82922 5.77018 8.40832 2.36035 13.3357 3.08154C15.0153 3.32736 16.5914 4.0423 17.8827 5.14415L16.7516 6.27529C16.3607 6.66624 16.3608 7.30005 16.7518 7.6909C16.9402 7.87925 17.1959 7.98473 17.4623 7.98398H22.0528C22.6057 7.98398 23.0538 7.53583 23.0538 6.983V2.39245C23.0537 1.83962 22.6054 1.39157 22.0526 1.39166C21.7872 1.39171 21.5327 1.49714 21.3451 1.68473L20.0118 3.01805C15.0513 -1.37679 7.46727 -0.918277 3.07238 4.04225C-1.32252 9.00278 -0.863906 16.5868 4.09658 20.9817C9.05706 25.3766 16.6411 24.918 21.036 19.9575C22.5831 18.2113 23.5876 16.0519 23.9267 13.7437C24.0594 12.9173 23.497 12.1398 22.6706 12.0071C22.5951 11.9949 22.5188 11.9885 22.4422 11.9879Z" fill="#D9D9D9"/>
</g>
<defs>
<clipPath id="clip0_420_391">
<rect width="24" height="24" fill="white"/>
</clipPath>
</defs>
</svg>
