<svg width="15" height="15" viewBox="0 0 15 15" fill="none" xmlns="http://www.w3.org/2000/svg">
<g clip-path="url(#clip0_282_384)">
<path d="M10.0269 8.75037H4.97312C4.15176 8.75136 3.36431 9.07809 2.78352 9.65888C2.20272 10.2397 1.87599 11.0271 1.875 11.8485V15.0004H13.125V11.8485C13.124 11.0271 12.7973 10.2397 12.2165 9.65888C11.6357 9.07809 10.8482 8.75136 10.0269 8.75037V8.75037Z" fill="#A1A1A1"/>
<path d="M7.5 7.5C9.57107 7.5 11.25 5.82107 11.25 3.75C11.25 1.67893 9.57107 0 7.5 0C5.42893 0 3.75 1.67893 3.75 3.75C3.75 5.82107 5.42893 7.5 7.5 7.5Z" fill="#A1A1A1"/>
</g>
<defs>
<clipPath id="clip0_282_384">
<rect width="15" height="15" fill="white"/>
</clipPath>
</defs>
</svg>
