<svg width="27" height="30" viewBox="0 0 27 30" fill="none" xmlns="http://www.w3.org/2000/svg">
<path d="M10.7888 5.73748C11.0501 5.44537 11.3723 5.22953 11.7269 5.10915C12.0814 4.98878 12.4572 4.96759 12.8208 5.04747C13.1845 5.12735 13.5247 5.30583 13.8113 5.56703C14.098 5.82824 14.3221 6.16409 14.4637 6.54472C14.6054 6.92535 14.6602 7.33897 14.6233 7.74881C14.5864 8.15865 14.4589 8.55201 14.2522 8.89393C14.0455 9.23585 13.766 9.51572 13.4385 9.70868C13.111 9.90164 12.7457 10.0017 12.375 9.99998H2.25M14.1638 24.2625C14.4251 24.5546 14.7473 24.7704 15.1019 24.8908C15.4564 25.0112 15.8322 25.0324 16.1958 24.9525C16.5595 24.8726 16.8997 24.6941 17.1863 24.4329C17.473 24.1717 17.6971 23.8359 17.8387 23.4552C17.9804 23.0746 18.0352 22.661 17.9983 22.2511C17.9614 21.8413 17.8339 21.4479 17.6272 21.106C17.4205 20.7641 17.141 20.4842 16.8135 20.2913C16.486 20.0983 16.1207 19.9983 15.75 20H2.25M19.9462 9.66248C20.2735 9.29984 20.676 9.03237 21.1184 8.88374C21.5608 8.73512 22.0293 8.7099 22.4825 8.81034C22.9358 8.91077 23.3597 9.13375 23.717 9.45956C24.0742 9.78538 24.3536 10.204 24.5306 10.6783C24.7076 11.1527 24.7766 11.6682 24.7316 12.1793C24.6866 12.6904 24.5289 13.1812 24.2726 13.6085C24.0162 14.0357 23.669 14.3862 23.2618 14.6289C22.8545 14.8716 22.3997 14.9991 21.9375 15H2.25" stroke="#B3B3B3" stroke-width="4" stroke-linecap="round" stroke-linejoin="round"/>
</svg>
